<svg width="167" height="20" viewBox="0 0 167 20" fill="none" xmlns="http://www.w3.org/2000/svg">
<path d="M19.3718 19.4155L23.2549 0H29.8007L25.9176 19.4155H19.3718Z" fill="#44484A"/>
<path d="M28.2366 19.4155L32.1197 0H37.4451L42.6318 12.6756H39.8027L49.7878 0H55.3628L51.5352 19.4155H45.5719L47.5966 8.98662L48.5397 8.93114L41.8274 17.6681H38.9429L35.1707 8.90341L36.2802 8.98662L34.1999 19.4155H28.2366Z" fill="#44484A"/>
<path d="M65.588 7.21148H72.3403L71.3973 11.9267H64.645L65.588 7.21148ZM61.2735 14.4784H75.3512L77 19.4155H53.8679L57.751 0H73.5329L72.5344 4.93709H63.1873L61.2735 14.4784Z" fill="#44484A"/>
<path d="M4.08163 19.4155L6.93847 5.07578H0L1.08173 0H21.4078L20.3816 5.07578H13.4843L10.6274 19.4155H4.08163Z" fill="#44484A"/>
<path d="M83.3438 19V7.12001H86.0078V8.82401C86.8958 7.50401 88.2637 6.88001 89.8477 6.88001C93.0637 6.88001 94.1198 9.01601 94.1198 12.184V19H91.4557V12.52C91.4557 10.576 91.0238 9.44801 89.0318 9.44801C87.2798 9.44801 86.0078 10.816 86.0078 12.784V19H83.3438Z" fill="#44484A"/>
<path d="M101.913 19.24C98.5288 19.24 95.5048 16.984 95.5048 13.072C95.5048 9.66401 98.1688 6.88001 101.625 6.88001C104.793 6.88001 107.337 9.64001 107.337 12.976C107.337 13.48 107.265 14.008 107.265 14.008H98.2648C98.6488 15.904 100.185 16.888 101.961 16.888C103.161 16.888 104.409 16.528 105.369 15.856L106.425 17.824C105.081 18.736 103.497 19.24 101.913 19.24ZM98.2408 12.04H104.745C104.481 10.336 103.113 9.20801 101.481 9.20801C99.9448 9.20801 98.6008 10.336 98.2408 12.04Z" fill="#44484A"/>
<path d="M113.248 19.24C110.824 19.24 109.648 17.92 109.648 15.184V9.30401H107.896V7.12001H109.648V4.79201L112.312 4.24001V7.12001H115.888V9.30401H112.312V15.256C112.312 16.528 112.912 16.936 113.584 16.936C114.52 16.936 115.312 16.36 115.312 16.36L116.104 18.352C115.552 18.712 114.592 19.24 113.248 19.24Z" fill="#44484A"/>
<path d="M119.944 19.024L116.032 7.12001H118.624L120.736 13.696C121.048 14.656 121.192 15.928 121.192 15.928C121.192 15.928 121.312 14.656 121.552 13.72L123.304 7.12001H125.92L127.672 13.72C127.912 14.656 128.032 15.928 128.032 15.928C128.032 15.928 128.176 14.656 128.488 13.696L130.6 7.12001H133.192L129.28 19.024H126.88L125.032 12.424C124.792 11.536 124.624 10.216 124.624 10.216C124.624 10.216 124.456 11.536 124.216 12.424L122.344 19.024H119.944Z" fill="#44484A"/>
<path d="M139.477 19.24C135.973 19.24 133.165 16.504 133.165 13.072C133.165 9.61601 135.973 6.88001 139.477 6.88001C142.981 6.88001 145.789 9.61601 145.789 13.072C145.789 16.504 142.981 19.24 139.477 19.24ZM139.477 16.672C141.517 16.672 143.077 15.136 143.077 13.072C143.077 10.984 141.517 9.44801 139.477 9.44801C137.437 9.44801 135.877 10.984 135.877 13.072C135.877 15.136 137.437 16.672 139.477 16.672Z" fill="#44484A"/>
<path d="M147.337 19V7.12001H150.001V9.47201C150.457 8.27201 151.754 6.88001 154.298 6.88001V9.78401C151.682 9.78401 150.001 11.032 150.001 14.152V19H147.337Z" fill="#44484A"/>
<path d="M155.477 19V3.20801H158.141V12.712L162.821 7.12001H166.109L161.429 12.424L166.973 19H163.733L159.821 14.272L158.141 16.264V19H155.477Z" fill="#44484A"/>
</svg>
