<?xml version="1.0" standalone="no"?>
<!DOCTYPE svg PUBLIC "-//W3C//DTD SVG 20010904//EN"
 "http://www.w3.org/TR/2001/REC-SVG-20010904/DTD/svg10.dtd">
<svg version="1.0" xmlns="http://www.w3.org/2000/svg"
 width="512.000000pt" height="512.000000pt" viewBox="0 0 512.000000 512.000000"
 preserveAspectRatio="xMidYMid meet">
<metadata>
Created by potrace 1.14, written by Peter Selinger 2001-2017
</metadata>
<g transform="translate(0.000000,512.000000) scale(0.100000,-0.100000)"
fill="#000000" stroke="none">
<path d="M2368 5115 c-1 -1 -33 -5 -69 -9 -399 -37 -817 -188 -1160 -417 -633
-423 -1044 -1103 -1126 -1864 -10 -93 -9 -463 1 -545 5 -36 10 -72 11 -80 22
-177 104 -472 180 -645 249 -568 671 -1015 1213 -1285 161 -80 351 -151 512
-191 116 -29 130 -32 210 -44 25 -4 56 -9 70 -11 120 -20 472 -26 610 -11 116
13 118 13 235 36 669 128 1271 535 1651 1116 68 103 66 101 144 256 103 204
183 433 215 618 3 19 8 37 10 40 3 6 8 33 21 123 33 237 24 634 -21 838 -3 14
-10 46 -15 71 -23 115 -94 335 -148 461 -199 456 -507 827 -924 1112 -53 36
-100 66 -104 66 -4 0 -15 6 -23 14 -20 18 -259 138 -331 166 -149 60 -397 133
-494 146 -15 2 -35 6 -45 8 -9 3 -43 8 -76 12 -33 3 -69 8 -80 11 -22 5 -461
13 -467 8z"/>
</g>
</svg>
